<svg xml:space="preserve" style="enable-background:new 0 0 1200 627;" viewBox="0 0 1200 627" y="0px" x="0px" xmlns:xlink="http://www.w3.org/1999/xlink" xmlns="http://www.w3.org/2000/svg" id="Layer_1" version="1.1">
<style type="text/css">
	.st0{display:none;fill:#FFFFFF;}
	.st1{fill-rule:evenodd;clip-rule:evenodd;fill:#121212;}
	.st2{fill:#121212;}
</style>
<rect height="627" width="1200" class="st0" y="0"></rect>
<path d="M378.7,361.9c1.6,21.3,1.6,31.2,1.6,42.1h-48.8c0-2.4,0-4.5,0.1-6.7c0.1-6.8,0.3-14-0.8-28.4
	c-1.5-21.1-10.5-25.8-27-25.8h-14.7H227v-38.3h79.1c20.9,0,31.4-6.4,31.4-23.4c0-14.9-10.5-24-31.4-24H227V220h87.8
	c47.4,0,70.9,22.5,70.9,58.5c0,26.9-16.6,44.5-38.9,47.4C365.7,329.8,376.7,340.6,378.7,361.9z" class="st1"></path>
<path d="M227,404.1v-28.6h51.6c8.6,0,10.5,6.4,10.5,10.3v18.3H227z" class="st2"></path>
<path d="M967.9,275.5h-48.4l-22,31l-21.4-31h-51.9l46.7,63.9l-50.7,66.3h48.4l25.8-35.3l25.8,35.3H972l-51-68.3
	L967.9,275.5z" class="st2"></path>
<path d="M663.1,297.1c-5.5-15.2-17.4-25.7-40.3-25.7c-19.4,0-33.3,8.8-40.3,23.1v-19.6h-46.9v130.2h46.9v-63.9
	c0-19.6,5.5-32.4,20.9-32.4c14.2,0,17.7,9.3,17.7,27.2v69.2H668v-63.9c0-19.6,5.2-32.4,20.9-32.4c14.2,0,17.4,9.3,17.4,27.2v69.2
	h46.9v-81.8c0-27.2-10.4-52-46.1-52C685.4,271.4,670.1,282.5,663.1,297.1z" class="st2"></path>
<path d="M486.7,354.6c-4.3,10.2-12.5,14.6-25.2,14.6c-14.2,0-25.8-7.6-27-23.6h90.7v-13.1c0-35.3-22.9-65.1-66.1-65.1
	c-40.3,0-70.4,29.5-70.4,70.7c0,41.5,29.6,66.6,71,66.6c34.2,0,58-16.6,64.6-46.4L486.7,354.6z M435.1,322.8
	c1.7-12.3,8.4-21.6,23.5-21.6c13.9,0,21.4,9.9,22,21.6H435.1z" class="st2"></path>
<path d="M768.6,275.8V406h46.9V275.8H768.6z M768.3,263.5h47.5v-41.5h-47.5V263.5z" class="st2"></path>
</svg>
